<svg width="17" height="18" viewBox="0 0 17 18" fill="none" xmlns="http://www.w3.org/2000/svg">
<path d="M7.95895 17.01C7.75895 17.01 7.58895 16.95 7.44895 16.83C7.32895 16.69 7.26895 16.52 7.26895 16.32V10.08H1.11895C0.918945 10.08 0.748945 10.02 0.608945 9.9C0.488945 9.76 0.428945 9.59 0.428945 9.39V8.43C0.428945 8.23 0.488945 8.07 0.608945 7.95C0.748945 7.81 0.918945 7.74 1.11895 7.74H7.26895V1.68C7.26895 1.48 7.32895 1.32 7.44895 1.2C7.58895 1.06 7.75895 0.989999 7.95895 0.989999H9.00895C9.20895 0.989999 9.36895 1.06 9.48895 1.2C9.62895 1.32 9.69895 1.48 9.69895 1.68V7.74H15.8789C16.0789 7.74 16.2389 7.81 16.3589 7.95C16.4989 8.07 16.5689 8.23 16.5689 8.43V9.39C16.5689 9.59 16.4989 9.76 16.3589 9.9C16.2389 10.02 16.0789 10.08 15.8789 10.08H9.69895V16.32C9.69895 16.52 9.62895 16.69 9.48895 16.83C9.36895 16.95 9.20895 17.01 9.00895 17.01H7.95895Z" fill="#454545"/>
</svg>
