<svg width="19" height="17" viewBox="0 0 19 17" fill="none" xmlns="http://www.w3.org/2000/svg">
<path fill-rule="evenodd" clip-rule="evenodd" d="M0 8.56354C0 8.2631 0.11929 7.97496 0.331628 7.76252C0.543965 7.55008 0.831957 7.43073 1.13225 7.43073H14.2505L9.38859 2.56871C9.28332 2.46339 9.19982 2.33835 9.14284 2.20074C9.08587 2.06313 9.05655 1.91564 9.05655 1.76668C9.05655 1.61773 9.08587 1.47024 9.14284 1.33263C9.19982 1.19502 9.28332 1.06998 9.38859 0.964656C9.49387 0.859332 9.61884 0.775784 9.75639 0.718783C9.89393 0.661782 10.0413 0.632445 10.1902 0.632445C10.3391 0.632445 10.4865 0.661782 10.6241 0.718783C10.7616 0.775784 10.8866 0.859332 10.9919 0.964656L17.7853 7.76151C17.8908 7.86674 17.9744 7.99174 18.0315 8.12937C18.0886 8.26699 18.118 8.41453 18.118 8.56354C18.118 8.71254 18.0886 8.86008 18.0315 8.99771C17.9744 9.13533 17.8908 9.26034 17.7853 9.36557L10.9919 16.1624C10.8866 16.2677 10.7616 16.3513 10.6241 16.4083C10.4865 16.4653 10.3391 16.4946 10.1902 16.4946C10.0413 16.4946 9.89393 16.4653 9.75639 16.4083C9.61884 16.3513 9.49387 16.2677 9.38859 16.1624C9.17599 15.9497 9.05655 15.6612 9.05655 15.3604C9.05655 15.2114 9.08587 15.0639 9.14284 14.9263C9.19982 14.7887 9.28332 14.6637 9.38859 14.5584L14.2505 9.69635H1.13225C0.831957 9.69635 0.543965 9.577 0.331628 9.36455C0.11929 9.15211 0 8.86398 0 8.56354Z" fill="white"/>
</svg>
