<svg width="23" height="24" viewBox="0 0 23 24" fill="none" xmlns="http://www.w3.org/2000/svg">
<path fill-rule="evenodd" clip-rule="evenodd" d="M18.2768 19.0699C15.348 22.1263 11.0111 22.7867 7.46206 21.074C6.93813 20.8539 6.50859 20.676 6.10023 20.676C4.9628 20.683 3.54703 21.8339 2.81122 21.067C2.0754 20.2991 3.17912 18.8206 3.17912 17.6266C3.17912 17.2004 3.0154 16.7602 2.80448 16.2124C1.16238 12.5096 1.7961 7.98269 4.72491 4.92721C8.4637 1.02443 14.538 1.02443 18.2768 4.9262C22.0223 8.83501 22.0156 15.1681 18.2768 19.0699Z" stroke="#B6A4CE" stroke-width="1.5" stroke-linecap="round" stroke-linejoin="round"/>
<path d="M15.2754 12.413H15.284" stroke="#B6A4CE" stroke-width="2" stroke-linecap="round" stroke-linejoin="round"/>
<path d="M11.4334 12.413H11.442" stroke="#B6A4CE" stroke-width="2" stroke-linecap="round" stroke-linejoin="round"/>
<path d="M7.59131 12.413H7.59993" stroke="#B6A4CE" stroke-width="2" stroke-linecap="round" stroke-linejoin="round"/>
</svg>
