<svg width="22" height="22" viewBox="0 0 22 22" fill="none" xmlns="http://www.w3.org/2000/svg">
<path fill-rule="evenodd" clip-rule="evenodd" d="M14.577 21.1965H5.753C2.312 21.1965 0 18.7815 0 15.1875V6.8735C0 3.2795 2.312 0.864502 5.753 0.864502H9.492C9.906 0.864502 10.242 1.2005 10.242 1.6145C10.242 2.0285 9.906 2.3645 9.492 2.3645H5.753C3.169 2.3645 1.5 4.1345 1.5 6.8735V15.1875C1.5 17.9265 3.169 19.6965 5.753 19.6965H14.577C17.161 19.6965 18.831 17.9265 18.831 15.1875V11.1595C18.831 10.7455 19.167 10.4095 19.581 10.4095C19.995 10.4095 20.331 10.7455 20.331 11.1595V15.1875C20.331 18.7815 18.018 21.1965 14.577 21.1965" fill="#A78EC4"/>
<path fill-rule="evenodd" clip-rule="evenodd" d="M7.60903 14.9163L10.5654 14.5669C10.9428 14.5223 11.2791 14.3345 11.5147 14.0358L18.0903 5.6972C18.36 5.35517 18.4807 4.92805 18.4295 4.49507C18.3782 4.06109 18.1611 3.67289 17.8191 3.40317L16.4676 2.33745C15.7605 1.78162 14.7317 1.90324 14.1726 2.60874L7.62854 10.9073C7.40174 11.1949 7.29614 11.5538 7.33005 11.9173L7.60903 14.9163ZM10.7415 16.0565L7.02143 16.4962C6.82082 16.52 6.61854 16.4613 6.46149 16.3338C6.30456 16.2074 6.20521 16.0228 6.18634 15.8206L5.83607 12.0567C5.76666 11.3077 5.98457 10.57 6.45033 9.97821L6.45132 9.9781L12.9954 1.67951C14.0657 0.324493 16.039 0.0912393 17.3958 1.15935L18.7472 2.22508C19.4056 2.74337 19.8217 3.48666 19.9191 4.31898C20.0175 5.15119 19.786 5.97002 19.2675 6.62643L12.6919 14.965C12.2094 15.5769 11.5161 15.9649 10.7415 16.0565V16.0565Z" fill="#CAAFEE"/>
</svg>
