<svg width="18" height="18" viewBox="0 0 18 18" fill="none" xmlns="http://www.w3.org/2000/svg">
<path d="M7 10.83C7.00042 10.297 6.78804 9.7858 6.41 9.41L0.59 3.59C0.21196 3.2142 -0.000422701 2.70304 -3.24879e-07 2.17V1C-3.24879e-07 0.447715 0.447715 0 1 0H17C17.5523 0 18 0.447715 18 1V2.17C18.0004 2.70304 17.788 3.2142 17.41 3.59L11.59 9.41C11.212 9.7858 10.9996 10.297 11 10.83V14.5C11 15.1295 10.7036 15.7223 10.2 16.1L7.8 17.9C7.64849 18.0136 7.44579 18.0319 7.27639 17.9472C7.107 17.8625 7 17.6894 7 17.5V10.83Z" fill="#9E81BE"/>
</svg>
