<svg width="19" height="22" viewBox="0 0 19 22" fill="none" xmlns="http://www.w3.org/2000/svg">
<path d="M9.1978 1H9.8022C11.9719 1 13.7308 2.76373 13.7308 4.93939V7.36363C13.7308 9.5393 11.9719 11.303 9.8022 11.303H9.1978C7.0281 11.303 5.26921 9.5393 5.26921 7.36363V4.93939C5.26921 2.76373 7.0281 1 9.1978 1ZM12.3668 2.8185C11.7571 2.07801 10.8346 1.60606 9.8022 1.60606H9.1978C7.3619 1.60606 5.87361 3.09844 5.87361 4.93939V4.94635C7.36948 4.9704 8.59739 4.82064 9.55554 4.50038C10.4869 4.18906 11.4243 3.62926 12.3668 2.8185ZM12.7095 3.32196C11.7272 4.15816 10.7398 4.74342 9.74666 5.07537C8.71909 5.41884 7.42866 5.57679 5.87361 5.55252V7.36363C5.87361 9.20458 7.3619 10.697 9.1978 10.697H9.8022C11.6381 10.697 13.1264 9.20458 13.1264 7.36363V4.93939C13.1264 4.35247 12.9751 3.80096 12.7095 3.32196ZM4.02872 13.8929C2.47573 14.3309 1.46054 15.8238 1.62107 17.4335L1.94352 20.6668C1.96012 20.8333 1.83895 20.9818 1.67288 20.9985C1.50681 21.0151 1.35871 20.8936 1.34211 20.7271L1.01967 17.4938C0.829963 15.5914 2.02973 13.8272 3.86508 13.3095C4.86281 13.0281 5.86092 12.8215 6.85928 12.6896C6.98496 12.673 7.10761 12.7368 7.16644 12.8494L8.69691 15.7792C8.92924 16.224 9.47713 16.3957 9.92067 16.1627C10.0841 16.0769 10.2175 15.9431 10.3031 15.7792L11.8336 12.8494C11.8924 12.7368 12.015 12.673 12.1407 12.6896C13.1391 12.8215 14.1372 13.0281 15.1349 13.3095C16.9703 13.8272 18.17 15.5915 17.9803 17.4938L17.6579 20.7271C17.6413 20.8936 17.4932 21.0151 17.3271 20.9985C17.1611 20.9818 17.0399 20.8333 17.0565 20.6668L17.3789 17.4335C17.5395 15.8238 16.5243 14.3309 14.9713 13.8929C14.0707 13.639 13.1705 13.4477 12.2705 13.3191L10.8385 16.0604C10.6958 16.3335 10.4735 16.5565 10.2011 16.6996C9.46188 17.0878 8.54873 16.8017 8.16152 16.0604L6.72952 13.3191C5.82951 13.4477 4.92927 13.639 4.02872 13.8929Z" fill="#B6A4CE" stroke="#B6A4CE"/>
</svg>
