<svg width="18" height="26" viewBox="0 0 18 26" fill="none" xmlns="http://www.w3.org/2000/svg">
<path d="M9.61282 16.0071C9.65389 15.9983 9.69631 15.9977 9.73763 16.0052C9.77896 16.0128 9.8184 16.0284 9.85369 16.0511C9.88898 16.0739 9.91943 16.1033 9.94331 16.1378C9.96719 16.1723 9.98402 16.2112 9.99285 16.2522C10.0017 16.2932 10.0023 16.3355 9.99478 16.3767C9.98722 16.418 9.97159 16.4573 9.94879 16.4926C9.92599 16.5278 9.89646 16.5582 9.86189 16.582C9.82732 16.6058 9.78839 16.6226 9.74731 16.6314C7.367 17.1465 6.65385 18.0892 6.65385 20.6738C6.65385 20.7603 6.61941 20.8433 6.55811 20.9045C6.49681 20.9656 6.41367 21 6.32699 21C6.2403 21 6.15716 20.9656 6.09586 20.9045C6.03456 20.8433 6.00012 20.7603 6.00012 20.6738C5.98761 17.7926 6.93848 16.5721 9.61282 16.0071Z" stroke="black"/>
<path d="M1 8.91775V19.1934C1.00152 20.6429 1.55303 22.0394 2.54622 23.1089C3.53942 24.1783 4.90257 24.8434 6.36801 24.9735C6.40744 24.9912 6.45029 25.0002 6.49362 25H6.91229C10.8149 24.9352 15.7224 23.91 15.7224 16.9162C15.7224 14.1057 16.0215 13.4723 16.4102 12.671L16.4282 12.6327C16.8648 11.7253 17.1997 10.9299 16.8618 10.4025C16.6585 10.0873 16.2637 9.93412 15.6297 9.93412C14.7325 9.93412 13.5782 10.6264 12.7857 11.8284V3.83C12.7835 3.51176 12.6897 3.20068 12.5152 2.93286C12.3406 2.66505 12.0926 2.4515 11.7998 2.317C11.507 2.18251 11.1815 2.13259 10.8611 2.17304C10.5407 2.21349 10.2384 2.34266 9.98955 2.54554C9.95398 2.11556 9.75208 1.71548 9.42557 1.42798C9.09907 1.14049 8.67292 0.987554 8.2352 1.00079C7.79748 1.01403 7.38165 1.19243 7.07367 1.49912C6.76568 1.8058 6.58907 2.21733 6.58034 2.64865V2.94325C6.33017 2.74122 6.02688 2.61334 5.7058 2.57452C5.38472 2.5357 5.05904 2.58752 4.7667 2.72395C4.47435 2.86039 4.22736 3.07582 4.05448 3.34517C3.88159 3.61452 3.78994 3.92671 3.79017 4.24538V7.63329C3.54 7.43126 3.23671 7.30339 2.91563 7.26456C2.59455 7.22574 2.26887 7.27756 1.97653 7.41399C1.68418 7.55043 1.43719 7.76586 1.26431 8.03521C1.09142 8.30456 0.999765 8.61675 1 8.93542V8.91775ZM1.62502 14.0909V8.91775C1.62502 8.63491 1.73908 8.36365 1.9421 8.16365C2.14512 7.96365 2.42048 7.85129 2.7076 7.85129C2.99471 7.85129 3.27007 7.96365 3.47309 8.16365C3.67611 8.36365 3.79017 8.63491 3.79017 8.91775V13.6932C3.79017 13.7749 3.8231 13.8532 3.8817 13.9109C3.94031 13.9686 4.0198 14.0011 4.10268 14.0011C4.18557 14.0011 4.26505 13.9686 4.32366 13.9109C4.38227 13.8532 4.41519 13.7749 4.41519 13.6932V4.22771C4.41519 3.94487 4.52925 3.67361 4.73227 3.47361C4.93529 3.27361 5.21065 3.16125 5.49777 3.16125C5.78488 3.16125 6.06024 3.27361 6.26326 3.47361C6.46629 3.67361 6.58034 3.94487 6.58034 4.22771V12.5001C6.58034 12.5817 6.61327 12.66 6.67187 12.7178C6.73048 12.7755 6.80997 12.808 6.89285 12.808C6.97574 12.808 7.05522 12.7755 7.11383 12.7178C7.17244 12.66 7.20536 12.5817 7.20536 12.5001V2.63687C7.20536 2.35402 7.31942 2.08277 7.52244 1.88277C7.72547 1.68277 8.00082 1.57041 8.28794 1.57041C8.57506 1.57041 8.85041 1.68277 9.05343 1.88277C9.25646 2.08277 9.37051 2.35402 9.37051 2.63687V12.7387C9.37051 12.8204 9.40344 12.8987 9.46204 12.9564C9.52065 13.0141 9.60014 13.0466 9.68302 13.0466C9.76591 13.0466 9.8454 13.0141 9.904 12.9564C9.96261 12.8987 9.99553 12.8204 9.99553 12.7387V3.83C9.99553 3.54716 10.1096 3.2759 10.3126 3.0759C10.5156 2.8759 10.791 2.76354 11.0781 2.76354C11.3652 2.76354 11.6406 2.8759 11.8436 3.0759C12.0466 3.2759 12.1607 3.54716 12.1607 3.83V13.104C11.9582 13.7226 11.8573 14.369 11.8616 15.0189C11.8616 15.1006 11.8946 15.1789 11.9532 15.2366C12.0118 15.2944 12.0913 15.3268 12.1741 15.3268C12.257 15.3268 12.3365 15.2944 12.3951 15.2366C12.4537 15.1789 12.4867 15.1006 12.4867 15.0189C12.4867 12.3233 14.3827 10.5381 15.6387 10.5381C16.0155 10.5381 16.2667 10.6029 16.3444 10.7207C16.5239 11.0153 16.0843 11.9168 15.8749 12.3587L15.854 12.394C15.4533 13.2307 15.1064 13.9554 15.1064 16.9044C15.1064 23.3296 10.7701 24.3165 6.85248 24.3695C5.46506 24.3579 4.13822 23.808 3.15966 22.8391C2.18109 21.8701 1.62969 20.5602 1.62502 19.1934V14.0909Z" fill="black" stroke="black"/>
</svg>
