<svg width="180" height="176" viewBox="0 0 180 176" fill="none" xmlns="http://www.w3.org/2000/svg">
<path d="M17.7787 149.332C22.7525 141.871 25.2394 138.141 28.68 135.626C30.4898 134.302 32.4761 133.239 34.5809 132.467C38.5824 131 43.0657 131 52.0322 131H127.968C136.934 131 141.418 131 145.419 132.467C147.524 133.239 149.51 134.302 151.32 135.626C154.761 138.141 157.248 141.871 162.221 149.332C168.667 159.001 171.89 163.835 171.146 167.831C170.768 169.861 169.771 171.724 168.291 173.164C165.379 176 159.569 176 147.949 176H32.051C20.4308 176 14.6206 176 11.7087 173.164C10.2293 171.724 9.23219 169.861 8.85418 167.831C8.11007 163.835 11.3329 159.001 17.7787 149.332Z" fill="#A68DC4"/>
<g filter="url(#filter0_b)">
<path fill-rule="evenodd" clip-rule="evenodd" d="M27 62.8045C27 28.1176 55.1301 0 89.8045 0C124.479 0 152.609 28.1176 152.609 62.8108C152.609 119.322 102.365 157.005 89.8045 157.005C77.2436 157.005 27 119.322 27 62.8045ZM89.8045 81.0178C99.8634 81.0178 108.018 72.8634 108.018 62.8045C108.018 52.7456 99.8634 44.5912 89.8045 44.5912C79.7456 44.5912 71.5912 52.7456 71.5912 62.8045C71.5912 72.8634 79.7456 81.0178 89.8045 81.0178Z" fill="#AA93C6" fill-opacity="0.08"/>
</g>
<defs>
<filter id="filter0_b" x="-13" y="-40" width="205.609" height="237.005" filterUnits="userSpaceOnUse" color-interpolation-filters="sRGB">
<feFlood flood-opacity="0" result="BackgroundImageFix"/>
<feGaussianBlur in="BackgroundImage" stdDeviation="20"/>
<feComposite in2="SourceAlpha" operator="in" result="effect1_backgroundBlur"/>
<feBlend mode="normal" in="SourceGraphic" in2="effect1_backgroundBlur" result="shape"/>
</filter>
</defs>
</svg>
