<svg width="45" height="43" viewBox="0 0 45 43" fill="none" xmlns="http://www.w3.org/2000/svg">
<ellipse cx="22.0648" cy="21.3504" rx="22.0648" ry="20.5489" fill="white"/>
<mask id="mask0" mask-type="alpha" maskUnits="userSpaceOnUse" x="0" y="2" width="44" height="41">
<path d="M43.0043 22.2578C43.0047 24.8505 42.4569 27.4179 41.392 29.8133C40.3271 32.2088 38.766 34.3854 36.7979 36.2188C34.8298 38.0523 32.4932 39.5066 29.9215 40.4989C27.3499 41.4912 24.5936 42.0019 21.8101 42.0019C16.1881 42.0019 10.7963 39.9217 6.82097 36.219C2.84563 32.5163 0.612305 27.4943 0.612305 22.2578C0.612305 17.0214 2.84563 11.9994 6.82097 8.29669C10.7963 4.59396 16.1881 2.51379 21.8101 2.51379C24.5936 2.51379 27.3499 3.02451 29.9215 4.01678C32.4932 5.00906 34.8298 6.46344 36.7979 8.29689C38.766 10.1303 40.3271 12.3069 41.392 14.7024C42.4569 17.0978 43.0047 19.6652 43.0043 22.2578Z" fill="#F1F3F6"/>
</mask>
<g mask="url(#mask0)">
<path d="M39.0546 44.5689H5.42474C5.48594 44.0143 5.78917 42.0864 7.3025 39.6221C9.09957 36.6913 17.1113 37.1085 17.3811 36.6913C17.498 36.5099 17.5648 35.7714 17.6037 34.9966C17.651 33.9912 17.651 32.9236 17.651 32.9236L22.2411 34.183L26.8311 32.9236C26.8311 32.9236 26.8311 33.9834 26.8756 34.9966C26.9173 35.774 26.9813 36.5229 27.1009 36.7069C27.3791 37.1241 35.3798 36.7069 37.1796 39.6376C38.6902 42.0864 38.9962 44.0143 39.0546 44.5689Z" fill="#E1A387"/>
<path d="M39.0546 44.5685H5.42474C5.48594 44.0139 5.78917 42.086 7.3025 39.6217C8.81582 37.1574 14.7857 37.0563 16.7608 36.8386C17.1197 36.7972 17.345 36.7557 17.3867 36.6909C17.3867 36.6909 22.1576 42.4747 27.1065 36.6909C27.151 36.7635 27.4348 36.8101 27.8799 36.8568C29.983 37.0641 35.6997 37.204 37.1852 39.6217C38.6902 42.086 38.9962 44.0139 39.0546 44.5685Z" fill="#860018"/>
<path d="M27.8738 36.8568C23.9792 41.902 19.3335 39.1371 16.7464 36.8386C17.1053 36.7972 17.3306 36.7557 17.3723 36.6909C17.3723 36.6909 22.1432 42.4747 27.0921 36.6909C27.145 36.7635 27.4287 36.8101 27.8738 36.8568Z" fill="#6B1524"/>
<path d="M14.3853 24.1908C14.3853 24.1908 12.2572 20.8428 11.3781 23.7114C10.4991 26.58 12.6244 27.9482 14.0181 27.6761C15.4118 27.404 14.3853 24.1908 14.3853 24.1908Z" fill="#E1A387"/>
<path d="M14.1384 24.7377C14.1384 24.7377 12.6724 22.618 12.1577 23.4732C11.8445 24.0777 11.7183 24.7516 11.7933 25.4192C11.7933 25.4192 12.0854 24.2246 13.0396 24.901C13.0396 24.901 12.1216 26.8133 13.9938 26.2666C13.9826 26.2743 14.7532 25.6939 14.1384 24.7377Z" fill="#CE8D75"/>
<path d="M29.6619 24.1908C29.6619 24.1908 31.79 20.8428 32.6691 23.7114C33.5481 26.58 31.4228 27.9482 30.0291 27.6761C28.6354 27.404 29.6619 24.1908 29.6619 24.1908Z" fill="#E1A387"/>
<path d="M29.6911 24.9601C29.6911 24.9601 31.1571 22.8404 31.6718 23.6956C31.9851 24.3001 32.1122 24.9738 32.039 25.6416C32.039 25.6416 31.7441 24.447 30.7899 25.1234C30.7899 25.1234 31.7079 27.0357 29.8357 26.489C29.8357 26.4968 29.0679 25.9163 29.6911 24.9601Z" fill="#CE8D75"/>
<path d="M29.7161 29.6564C29.5548 32.1181 26.542 33.9398 24.5725 34.7534C23.4441 35.2436 22.1776 35.3869 20.956 35.1629C13.5118 33.1235 13.7232 28.4255 14.057 27.1065C14.3909 25.7876 13.9346 23.2196 14.8081 20.1722C14.9206 19.7779 15.088 19.3989 15.3061 19.045C16.6386 16.8787 19.4789 16.1816 19.4789 16.1816C24.4 13.2198 27.8439 16.1298 28.9789 18.5138C29.0543 18.6695 29.1212 18.8286 29.1792 18.9906C30.0388 21.4446 29.883 26.894 29.7161 29.6564Z" fill="#F2C2AC"/>
<path fill-rule="evenodd" clip-rule="evenodd" d="M27.2068 14.13C27.2265 14.1255 27.2462 14.121 27.266 14.1168C27.4354 14.078 27.6073 14.0494 27.7806 14.0313C27.9257 14.0326 28.0707 14.0422 28.2146 14.0598C28.3675 14.0818 28.5183 14.1156 28.6652 14.1608C30.8073 14.832 30.977 17.9571 30.6876 20.6779C30.6654 20.8697 30.6431 21.0614 30.6181 21.248C30.4766 22.2935 30.2769 23.3314 30.02 24.3576C29.9942 24.4649 29.9695 24.5594 29.9484 24.6397C29.9354 24.6894 29.9239 24.7336 29.9143 24.7722C29.8837 24.8914 29.8642 24.9562 29.8642 24.9562L29.8114 24.6297V24.5856C29.6973 23.7693 29.255 22.7147 28.7153 21.6419C28.085 20.4549 27.3996 19.2944 26.6614 18.1635C25.3864 18.5493 23.4648 19.0745 21.0106 19.5813C20.5321 19.6798 20.0369 19.7783 19.5167 19.8741C18.8101 20.0054 18.0683 20.1333 17.2912 20.2577C14.2062 20.7422 12.8013 19.9001 12.1865 18.8169C12.1373 18.7327 12.0927 18.6462 12.053 18.5578C11.4772 17.2621 11.8916 15.741 11.8916 15.741C12.053 16.0597 12.4091 16.0908 12.9209 15.9224C13.0157 15.8918 13.1085 15.8563 13.1991 15.8162C13.8868 15.534 14.7927 14.9889 15.8402 14.3585C17.6021 13.2982 19.7648 11.9967 21.9647 11.2995C22.4005 11.1567 22.8605 11.0891 23.3223 11.1C23.541 11.1072 23.7582 11.1359 23.9705 11.1855C24.6602 11.3608 25.2848 11.7095 25.7759 12.1935C25.851 12.2661 25.9261 12.3386 25.9984 12.4138C26.4443 12.8943 26.8246 13.4243 27.1307 13.9919C27.1565 14.0378 27.1818 14.0838 27.2068 14.13Z" fill="#A16929"/>
<path d="M14.3797 15.9762C14.2879 16.2353 13.9902 21.3298 14.274 23.6412L16.8972 17.233L14.3797 15.9762Z" fill="#A16929"/>
<path d="M26.0049 12.4034C25.3289 13.1161 24.6418 13.8157 23.8907 14.4765C21.8126 16.3163 19.4063 17.9125 16.6022 18.6226C15.2113 18.9698 13.5867 19.1875 12.1874 18.8169C12.1382 18.7327 12.0936 18.6462 12.0539 18.5578C12.1735 18.5915 12.2931 18.6174 12.4239 18.6433C14.9276 19.1201 17.7094 18.2727 19.8653 17.0885C22.1256 15.7886 24.1275 14.1343 25.7823 12.1987C25.8574 12.2557 25.9326 12.3283 26.0049 12.4034Z" fill="#C98643"/>
<path d="M23.978 11.1751C22.7095 13.1211 21.0432 14.8366 19.1126 15.9482C17.5436 16.85 15.7743 17.1869 14.0079 16.6349C13.5721 16.509 13.1916 16.2554 12.9229 15.912C13.0177 15.8813 13.1106 15.8458 13.2011 15.8057C13.3655 15.9747 13.5652 16.1105 13.7881 16.2048C14.7217 16.5937 15.767 16.6848 16.7619 16.4639C18.4533 16.083 19.9249 15.0283 21.1044 13.8726C21.9556 13.0273 22.7021 12.0955 23.3299 11.0947C23.5483 11.1002 23.7656 11.1272 23.978 11.1751Z" fill="#C98643"/>
<path d="M27.3899 14.4578C26.1673 15.7903 24.8049 17.0056 23.3228 18.0856C22.588 18.6296 21.8158 19.1282 21.0111 19.5782C20.5326 19.6767 20.0374 19.7751 19.5172 19.871C21.0547 19.2206 22.4739 18.3507 23.7234 17.2927C24.9586 16.2787 26.1003 15.17 27.1367 13.9784C27.2257 14.1391 27.3092 14.2997 27.3899 14.4578Z" fill="#C98643"/>
<path d="M17.3392 21.8406C16.5046 22.3174 16.0067 23.4861 16.5046 24.2402C16.5269 24.279 16.6131 24.2635 16.6076 24.2194C16.5681 23.8705 16.6136 23.5179 16.7408 23.1877C16.868 22.8574 17.0735 22.5582 17.342 22.3122C17.7007 22.0076 18.1669 21.8362 18.6522 21.8303C19.2086 21.7966 19.4534 22.2604 19.8901 22.4185C19.9792 22.4522 20.0932 22.3977 20.0626 22.3122C19.7177 21.3431 18.1932 21.3586 17.3392 21.8406Z" fill="#390A0A"/>
<path d="M20.2846 24.0176C20.2846 25.2744 19.45 26.2954 18.4319 26.2954C17.4137 26.2954 16.5819 25.2744 16.5819 24.0176C16.5819 22.7608 17.4165 21.7399 18.4319 21.7399C19.4472 21.7399 20.2846 22.7608 20.2846 24.0176Z" fill="white"/>
<path d="M19.8937 24.0847C19.8937 25.0202 19.2622 25.7795 18.4833 25.7795C17.7044 25.7795 17.0729 25.0202 17.0729 24.0847C17.0729 23.1493 17.7044 22.3875 18.4833 22.3875C19.2622 22.3875 19.8937 23.1545 19.8937 24.0847Z" fill="#3D79CA"/>
<path d="M19.6677 24.1107C19.6677 24.8881 19.1502 25.5411 18.5132 25.5411C17.8761 25.5411 17.3587 24.901 17.3587 24.1107C17.3587 23.3204 17.8761 22.6803 18.5132 22.6803C19.1502 22.6803 19.6677 23.3229 19.6677 24.1107Z" fill="#390A0A"/>
<path d="M19.8926 22.88C19.8926 23.0355 19.5644 23.1598 19.161 23.1598C18.7576 23.1598 18.4322 23.0355 18.4322 22.88C18.4322 22.7245 18.7604 22.5975 19.161 22.5975C19.5616 22.5975 19.8926 22.7219 19.8926 22.88Z" fill="white"/>
<path d="M26.7413 21.8406C27.5759 22.3174 28.0738 23.4861 27.5759 24.2402C27.5536 24.279 27.4674 24.2635 27.4729 24.2194C27.5124 23.8705 27.4669 23.5179 27.3397 23.1877C27.2126 22.8574 27.0071 22.5582 26.7385 22.3122C26.3808 22.0078 25.9156 21.8363 25.4311 21.8303C24.8747 21.7966 24.6271 22.2604 24.1904 22.4185C24.1013 22.4522 23.9873 22.3977 24.0179 22.3122C24.3628 21.3431 25.8873 21.3586 26.7413 21.8406Z" fill="#390A0A"/>
<path d="M27.3654 24.0176C27.3654 25.2744 26.5308 26.2954 25.5155 26.2954C24.5001 26.2954 23.6655 25.2744 23.6655 24.0176C23.6655 22.7608 24.5001 21.7399 25.5155 21.7399C26.5308 21.7399 27.3654 22.7608 27.3654 24.0176Z" fill="white"/>
<path d="M26.9724 24.0847C26.9724 25.0202 26.3409 25.7795 25.562 25.7795C24.783 25.7795 24.1516 25.028 24.1516 24.0847C24.1516 23.1415 24.783 22.3875 25.5592 22.3875C26.3353 22.3875 26.9724 23.1545 26.9724 24.0847Z" fill="#3D79CA"/>
<path d="M26.7508 24.1107C26.7508 24.8881 26.2333 25.5411 25.5935 25.5411C24.9537 25.5411 24.439 24.901 24.439 24.1107C24.439 23.3204 24.9564 22.6803 25.5935 22.6803C26.2305 22.6803 26.7508 23.3229 26.7508 24.1107Z" fill="#390A0A"/>
<path d="M26.9726 22.88C26.9726 23.0355 26.6472 23.1598 26.2438 23.1598C25.8404 23.1598 25.515 23.0355 25.515 22.88C25.515 22.7245 25.8404 22.5975 26.2438 22.5975C26.6472 22.5975 26.9726 22.7219 26.9726 22.88Z" fill="white"/>
<path d="M21.9889 22.9184C21.9889 22.9184 21.4325 22.4001 21.3324 24.2451C21.2322 26.0901 21.3324 28.018 21.3324 28.018C21.3324 28.018 20.0194 27.3028 20.4561 28.3238C20.6926 28.8732 21.2489 29.1556 21.847 29.3007C22.0643 29.3592 22.295 29.3586 22.5119 29.2989C22.7288 29.2392 22.9228 29.123 23.071 28.9639C23.2268 28.8213 24.0391 28.0543 23.7832 27.8159C23.6608 27.6993 22.9487 27.974 22.7678 28.018C22.7623 28.018 22.9737 22.5115 21.9889 22.9184Z" fill="#E1A387"/>
<path d="M25.2646 30.3899C25.2646 30.3899 22.6858 34.5075 19.1251 30.5454C19.1251 30.5454 21.2003 29.8924 21.9598 30.4728L22.238 30.7657C22.238 30.7657 23.0391 29.8457 25.2646 30.3899Z" fill="#CE8D75"/>
<path d="M25.2646 30.3895C25.2646 30.3895 22.6858 34.5071 19.1251 30.545C19.1445 30.545 22.6246 32.0324 25.2646 30.3895Z" fill="#E1A387"/>
<path d="M20.6305 20.9019C20.6305 21.3372 19.4382 21.0918 17.981 21.0918C16.5238 21.0918 15.3315 21.3372 15.3315 20.9019C15.3315 20.4666 16.5211 19.5154 17.981 19.5154C19.4409 19.5154 20.6305 20.4666 20.6305 20.9019Z" fill="#343434"/>
<path d="M28.2841 20.9019C28.2841 21.3372 27.0945 21.0918 25.6346 21.0918C24.1747 21.0918 22.9851 21.3372 22.9851 20.9019C22.9851 20.4666 24.1747 19.5154 25.6346 19.5154C27.0945 19.5154 28.2841 20.4666 28.2841 20.9019Z" fill="#343434"/>
</g>
</svg>
