<svg width="52" height="52" viewBox="0 0 52 52" fill="none" xmlns="http://www.w3.org/2000/svg">
<circle cx="25.9352" cy="25.9352" r="25.9352" fill="#EEF7FE"/>
<mask id="mask0" mask-type="alpha" maskUnits="userSpaceOnUse" x="0" y="2" width="51" height="50">
<path d="M50.5479 27.0805C50.5485 30.3528 49.9045 33.5931 48.6528 36.6165C47.4011 39.6398 45.5662 42.387 43.2528 44.701C40.9395 47.015 38.193 48.8506 35.1703 50.103C32.1476 51.3554 28.9078 52 25.636 52C19.0278 52 12.6903 49.3745 8.01765 44.7012C3.34498 40.0279 0.71991 33.6896 0.71991 27.0805C0.71991 20.4715 3.34498 14.1332 8.01765 9.45985C12.6903 4.78656 19.0278 2.16113 25.636 2.16113C28.9078 2.16113 32.1476 2.80572 35.1703 4.05809C38.193 5.31046 40.9395 7.14607 43.2528 9.46011C45.5662 11.7741 47.4011 14.5213 48.6528 17.5446C49.9045 20.5679 50.5485 23.8083 50.5479 27.0805Z" fill="#F1F3F6"/>
</mask>
<g mask="url(#mask0)">
<path d="M45.9052 55.2399H6.37628C6.44822 54.54 6.80463 52.1067 8.58341 48.9964C10.6957 45.2975 20.1128 45.824 20.43 45.2975C20.5673 45.0685 20.6458 44.1364 20.6916 43.1585C20.7472 41.8896 20.7472 40.5421 20.7472 40.5421L26.1424 42.1316L31.5376 40.5421C31.5376 40.5421 31.5376 41.8798 31.5899 43.1585C31.6389 44.1397 31.7141 45.0849 31.8547 45.3171C32.1817 45.8437 41.5858 45.3171 43.7013 49.0161C45.4768 52.1067 45.8365 54.54 45.9052 55.2399Z" fill="#E1A387"/>
<path d="M45.9052 55.2395H6.37628C6.44822 54.5396 6.80463 52.1064 8.58341 48.9961C10.3622 45.8858 17.3792 45.7583 19.7008 45.4835C20.1226 45.4312 20.3875 45.3789 20.4365 45.2971C20.4365 45.2971 26.0443 52.5969 31.8613 45.2971C31.9136 45.3887 32.2471 45.4476 32.7703 45.5064C35.2423 45.7681 41.9618 45.9447 43.7079 48.9961C45.4768 52.1064 45.8365 54.5396 45.9052 55.2395Z" fill="#860018"/>
<path d="M32.7633 45.5064C28.1855 51.8742 22.7249 48.3845 19.684 45.4835C20.1058 45.4312 20.3706 45.3789 20.4197 45.2971C20.4197 45.2971 26.0274 52.5969 31.8444 45.2971C31.9066 45.3887 32.2401 45.4476 32.7633 45.5064Z" fill="#6B1524"/>
<path d="M16.9087 29.5206C16.9087 29.5206 14.4072 25.295 13.374 28.9155C12.3407 32.536 14.8388 34.2628 16.477 33.9194C18.1152 33.576 16.9087 29.5206 16.9087 29.5206Z" fill="#E1A387"/>
<path d="M16.6184 30.2107C16.6184 30.2107 14.8952 27.5354 14.2903 28.6147C13.9221 29.3777 13.7738 30.2282 13.8619 31.0709C13.8619 31.0709 14.2052 29.5631 15.3268 30.4167C15.3268 30.4167 14.2477 32.8304 16.4483 32.1403C16.4353 32.1501 17.341 31.4175 16.6184 30.2107Z" fill="#CE8D75"/>
<path d="M34.8645 29.5206C34.8645 29.5206 37.3659 25.295 38.3992 28.9155C39.4324 32.536 36.9343 34.2628 35.2961 33.9194C33.6579 33.576 34.8645 29.5206 34.8645 29.5206Z" fill="#E1A387"/>
<path d="M34.8993 30.4915C34.8993 30.4915 36.6225 27.8162 37.2274 28.8955C37.5957 29.6585 37.7451 30.5087 37.659 31.3516C37.659 31.3516 37.3124 29.8439 36.1909 30.6975C36.1909 30.6975 37.2699 33.1112 35.0693 32.4211C35.0693 32.4309 34.1669 31.6983 34.8993 30.4915Z" fill="#CE8D75"/>
<path d="M34.9285 36.4182C34.7388 39.5252 31.1976 41.8244 28.8826 42.8514C27.5563 43.47 26.0677 43.6509 24.6318 43.3681C15.8818 40.7942 16.1303 34.8647 16.5227 33.2C16.915 31.5353 16.3788 28.2942 17.4055 24.4481C17.5377 23.9503 17.7345 23.472 17.9908 23.0254C19.5571 20.2912 22.8955 19.4114 22.8955 19.4114C28.6799 15.6732 32.7279 19.346 34.062 22.3549C34.1506 22.5514 34.2292 22.7522 34.2974 22.9567C35.3078 26.0539 35.1247 32.9318 34.9285 36.4182Z" fill="#F2C2AC"/>
<path fill-rule="evenodd" clip-rule="evenodd" d="M31.9794 16.8218C32.0023 16.8161 32.0253 16.8106 32.0483 16.8053C32.2474 16.7563 32.4495 16.7203 32.6532 16.6973C32.8238 16.6991 32.9941 16.7111 33.1633 16.7333C33.3431 16.7611 33.5203 16.8038 33.693 16.8609C36.2108 17.7079 36.4102 21.6522 36.0702 25.0863C36.044 25.3283 36.0179 25.5703 35.9884 25.8058C35.8221 27.1253 35.5874 28.4352 35.2854 29.7304C35.2551 29.8659 35.226 29.9851 35.2013 30.0865C35.186 30.1491 35.1724 30.205 35.1612 30.2537C35.1252 30.4041 35.1023 30.4859 35.1023 30.4859L35.0402 30.0738V30.0182C34.9061 28.988 34.3862 27.6569 33.7519 26.3029C33.011 24.8049 32.2055 23.3402 31.3378 21.9129C29.8392 22.3998 27.5807 23.0626 24.6964 23.7022C24.134 23.8265 23.552 23.9508 22.9405 24.0718C22.11 24.2375 21.238 24.3988 20.3247 24.5558C16.6984 25.1674 15.0472 24.1045 14.3245 22.7374C14.2667 22.6312 14.2143 22.522 14.1676 22.4104C13.4907 20.7751 13.9779 18.8553 13.9779 18.8553C14.1676 19.2576 14.5861 19.2968 15.1878 19.0842C15.2991 19.0455 15.4083 19.0008 15.5148 18.9501C16.3231 18.5941 17.3878 17.906 18.6191 17.1104C20.69 15.7722 23.2321 14.1295 25.818 13.2496C26.3301 13.0693 26.8709 12.984 27.4137 12.9978C27.6707 13.0069 27.9261 13.043 28.1755 13.1057C28.9862 13.3269 29.7204 13.7671 30.2976 14.3779C30.3859 14.4695 30.4742 14.5611 30.5592 14.6559C31.0833 15.2624 31.5303 15.9314 31.89 16.6477C31.9204 16.7055 31.9501 16.7636 31.9794 16.8218Z" fill="#A16929"/>
<path d="M16.9021 19.1523C16.7942 19.4794 16.4443 25.9093 16.7778 28.8266L19.8612 20.7386L16.9021 19.1523Z" fill="#A16929"/>
<path d="M30.5669 14.6433C29.7723 15.5427 28.9646 16.4257 28.0818 17.2597C25.6392 19.5818 22.8108 21.5964 19.5149 22.4925C17.8799 22.9308 15.9704 23.2055 14.3256 22.7378C14.2678 22.6316 14.2154 22.5224 14.1687 22.4108C14.3093 22.4533 14.4499 22.486 14.6036 22.5187C17.5464 23.1205 20.8163 22.051 23.3504 20.5564C26.0072 18.9158 28.3601 16.8278 30.3053 14.3849C30.3936 14.4568 30.4818 14.5484 30.5669 14.6433Z" fill="#C98643"/>
<path d="M28.1836 13.0927C26.6926 15.5489 24.7339 17.714 22.4647 19.1171C20.6205 20.2552 18.5409 20.6804 16.4646 19.9837C15.9524 19.8248 15.5052 19.5048 15.1893 19.0713C15.3007 19.0326 15.4098 18.9878 15.5163 18.9372C15.7095 19.1504 15.9443 19.3219 16.2062 19.4408C17.3036 19.9317 18.5323 20.0467 19.7017 19.7679C21.6897 19.2871 23.4195 17.956 24.8059 16.4974C25.8064 15.4304 26.6839 14.2544 27.4217 12.9913C27.6785 12.9983 27.9339 13.0323 28.1836 13.0927Z" fill="#C98643"/>
<path d="M32.1945 17.2362C30.7575 18.9179 29.1561 20.4518 27.414 21.8149C26.5504 22.5015 25.6427 23.1308 24.6968 23.6987C24.1344 23.823 23.5524 23.9473 22.9409 24.0683C24.7481 23.2474 26.4162 22.1495 27.8849 20.8141C29.3367 19.5343 30.6788 18.1351 31.8969 16.6311C32.0016 16.8339 32.0997 17.0367 32.1945 17.2362Z" fill="#C98643"/>
<path d="M20.3806 26.5542C19.3996 27.156 18.8143 28.631 19.3996 29.5827C19.4258 29.6318 19.5271 29.6121 19.5206 29.5565C19.4742 29.1162 19.5277 28.6711 19.6772 28.2543C19.8267 27.8375 20.0682 27.4599 20.3838 27.1494C20.8055 26.765 21.3534 26.5486 21.9239 26.5411C22.5779 26.4986 22.8656 27.084 23.379 27.2835C23.4836 27.326 23.6177 27.2574 23.5817 27.1494C23.1762 25.9262 21.3844 25.9459 20.3806 26.5542Z" fill="#390A0A"/>
<path d="M23.8429 29.3018C23.8429 30.888 22.862 32.1766 21.6652 32.1766C20.4685 32.1766 19.4908 30.888 19.4908 29.3018C19.4908 27.7156 20.4717 26.427 21.6652 26.427C22.8587 26.427 23.8429 27.7156 23.8429 29.3018Z" fill="white"/>
<path d="M23.3829 29.3866C23.3829 30.5672 22.6407 31.5255 21.7251 31.5255C20.8096 31.5255 20.0673 30.5672 20.0673 29.3866C20.0673 28.2059 20.8096 27.2444 21.7251 27.2444C22.6407 27.2444 23.3829 28.2125 23.3829 29.3866Z" fill="#3D79CA"/>
<path d="M23.1178 29.4192C23.1178 30.4004 22.5096 31.2246 21.7608 31.2246C21.012 31.2246 20.4039 30.4167 20.4039 29.4192C20.4039 28.4217 21.012 27.6139 21.7608 27.6139C22.5096 27.6139 23.1178 28.425 23.1178 29.4192Z" fill="#390A0A"/>
<path d="M23.3821 27.8658C23.3821 28.062 22.9962 28.219 22.5221 28.219C22.048 28.219 21.6654 28.062 21.6654 27.8658C21.6654 27.6695 22.0512 27.5093 22.5221 27.5093C22.9929 27.5093 23.3821 27.6663 23.3821 27.8658Z" fill="white"/>
<path d="M31.4323 26.5542C32.4132 27.156 32.9985 28.631 32.4132 29.5827C32.3871 29.6318 32.2857 29.6121 32.2922 29.5565C32.3386 29.1162 32.2851 28.6711 32.1356 28.2543C31.9862 27.8375 31.7446 27.4599 31.429 27.1494C31.0085 26.7652 30.4617 26.5488 29.8922 26.5411C29.2382 26.4986 28.9472 27.084 28.4339 27.2835C28.3292 27.326 28.1952 27.2574 28.2311 27.1494C28.6366 25.9262 30.4284 25.9459 31.4323 26.5542Z" fill="#390A0A"/>
<path d="M32.1658 29.3018C32.1658 30.888 31.1848 32.1766 29.9913 32.1766C28.7978 32.1766 27.8169 30.888 27.8169 29.3018C27.8169 27.7156 28.7978 26.427 29.9913 26.427C31.1848 26.427 32.1658 27.7156 32.1658 29.3018Z" fill="white"/>
<path d="M31.7041 29.3866C31.7041 30.5672 30.9618 31.5255 30.0463 31.5255C29.1307 31.5255 28.3885 30.5771 28.3885 29.3866C28.3885 28.1961 29.1307 27.2444 30.043 27.2444C30.9553 27.2444 31.7041 28.2125 31.7041 29.3866Z" fill="#3D79CA"/>
<path d="M31.4433 29.4192C31.4433 30.4004 30.835 31.2246 30.083 31.2246C29.3309 31.2246 28.726 30.4167 28.726 29.4192C28.726 28.4217 29.3342 27.6139 30.083 27.6139C30.8318 27.6139 31.4433 28.425 31.4433 29.4192Z" fill="#390A0A"/>
<path d="M31.7039 27.8658C31.7039 28.062 31.3214 28.219 30.8472 28.219C30.3731 28.219 29.9905 28.062 29.9905 27.8658C29.9905 27.6695 30.3731 27.5093 30.8472 27.5093C31.3214 27.5093 31.7039 27.6663 31.7039 27.8658Z" fill="white"/>
<path d="M25.8459 27.9146C25.8459 27.9146 25.1919 27.2605 25.0742 29.5891C24.9565 31.9177 25.0742 34.351 25.0742 34.351C25.0742 34.351 23.5309 33.4483 24.0442 34.7369C24.3222 35.4303 24.9761 35.7868 25.6791 35.9699C25.9345 36.0437 26.2057 36.0429 26.4606 35.9676C26.7156 35.8923 26.9436 35.7455 27.1179 35.5447C27.301 35.3649 28.2558 34.3968 27.9549 34.0959C27.8111 33.9487 26.974 34.2954 26.7615 34.351C26.7549 34.351 27.0034 27.4011 25.8459 27.9146Z" fill="#E1A387"/>
<path d="M29.6964 37.3441C29.6964 37.3441 26.6653 42.541 22.4799 37.5403C22.4799 37.5403 24.9192 36.7162 25.8119 37.4488L26.1389 37.8183C26.1389 37.8183 27.0806 36.6573 29.6964 37.3441Z" fill="#CE8D75"/>
<path d="M29.6964 37.3439C29.6964 37.3439 26.6653 42.5408 22.4799 37.5401C22.5028 37.5401 26.5934 39.4174 29.6964 37.3439Z" fill="#E1A387"/>
<path d="M24.2496 25.369C24.2496 25.9183 22.8482 25.6087 21.1354 25.6087C19.4225 25.6087 18.0211 25.9183 18.0211 25.369C18.0211 24.8196 19.4194 23.619 21.1354 23.619C22.8513 23.619 24.2496 24.8196 24.2496 25.369Z" fill="#343434"/>
<path d="M33.2459 25.369C33.2459 25.9183 31.8476 25.6087 30.1316 25.6087C28.4157 25.6087 27.0174 25.9183 27.0174 25.369C27.0174 24.8196 28.4157 23.619 30.1316 23.619C31.8476 23.619 33.2459 24.8196 33.2459 25.369Z" fill="#343434"/>
</g>
</svg>
