<svg width="21" height="21" viewBox="0 0 21 21" fill="none" xmlns="http://www.w3.org/2000/svg">
<path d="M16.9989 9.18552C17.0503 4.76755 13.5105 1.14441 9.09248 1.09303C4.6745 1.04165 1.05137 4.58148 0.999985 8.99946" stroke="black"/>
<path d="M3.63618 14.8933C7.05348 17.8351 12.2255 17.6424 15.1882 14.4628C18.1509 11.2832 17.7824 6.32071 14.3651 3.37885" stroke="black"/>
<path d="M2.96946 14.101C2.69589 14.1474 2.50844 14.4051 2.5508 14.6766L3.24096 19.1013C3.28331 19.3728 3.53942 19.5553 3.81299 19.5089C4.08656 19.4625 4.274 19.2048 4.23165 18.9333L3.61817 15.0003L7.58094 14.3283C7.85451 14.282 8.04195 14.0242 7.9996 13.7527C7.95725 13.4812 7.70114 13.2987 7.42757 13.3451L2.96946 14.101ZM4.22695 14.8161L3.34218 14.1856L2.7501 14.9997L3.63487 15.6302L4.22695 14.8161Z" fill="black"/>
</svg>
