<svg width="4" height="16" viewBox="0 0 4 16" fill="none" xmlns="http://www.w3.org/2000/svg">
<path fill-rule="evenodd" clip-rule="evenodd" d="M3.32781 1.57262C3.30764 2.4008 2.61991 3.05582 1.79173 3.03564C0.963545 3.01547 0.308527 2.32774 0.328703 1.49956C0.348879 0.671374 1.03661 0.0163558 1.86479 0.0365316C2.69297 0.0567075 3.34799 0.744437 3.32781 1.57262ZM3.18169 7.57084C3.16151 8.39902 2.47378 9.05404 1.6456 9.03386C0.817418 9.01369 0.1624 8.32596 0.182576 7.49778C0.202752 6.66959 0.890482 6.01458 1.71866 6.03475C2.54684 6.05493 3.20186 6.74266 3.18169 7.57084ZM1.49947 15.0321C2.32765 15.0523 3.01538 14.3972 3.03556 13.5691C3.05574 12.7409 2.40072 12.0531 1.57254 12.033C0.744355 12.0128 0.0566256 12.6678 0.0364498 13.496C0.0162739 14.3242 0.671292 15.0119 1.49947 15.0321Z" fill="#22215B"/>
</svg>
